                                                                        S      1
,,7Hrail v1,7Hrail v1,7Hunknown,7Hunknown,32,38,7,99,15,,1.,10,2HCM,1,  G      1
0.08,15H20180420.031530,0.001,10000.,8Hvengjean,7Hunknown,11,0,15H201804G      2
20.071443;                                                              G      3
     186       1                                                00000000D      1
     186            -263       1       0                               0D      2
     514       2                                                00010000D      3
     514                       2       1                               0D      4
     510       4                                                00010000D      5
     510            -263       1       1                               0D      6
     510       5                                                00010000D      7
     510            -263       1       1                               0D      8
     510       6                                                00010000D      9
     510            -263       1       1                               0D     10
     510       7                                                00010000D     11
     510            -263       1       1                               0D     12
     510       8                                                00010000D     13
     510            -263       1       1                               0D     14
     510       9                                                00010000D     15
     510            -263       1       1                               0D     16
     510      10                                                00010000D     17
     510            -263       1       1                               0D     18
     510      11                                                00010000D     19
     510            -263       1       1                               0D     20
     510      12                                                00010000D     21
     510            -263       1       1                               0D     22
     510      13                                                00010000D     23
     510            -263       1       1                               0D     24
     510      14                                                00010000D     25
     510            -263       1       1                               0D     26
     510      15                                                00010000D     27
     510            -263       1       1                               0D     28
     510      16                                                00010000D     29
     510            -263       1       1                               0D     30
     510      17                                                00010000D     31
     510            -263       1       1                               0D     32
     510      18                                                00010000D     33
     510            -263       1       1                               0D     34
     510      19                                                00010000D     35
     510            -263       1       1                               0D     36
     510      20                                                00010000D     37
     510            -263       1       1                               0D     38
     510      21                                                00010000D     39
     510            -263       1       1                               0D     40
     510      22                                                00010000D     41
     510            -263       1       1                               0D     42
     510      23                                                00010000D     43
     510            -263       1       1                               0D     44
     510      24                                                00010000D     45
     510            -263       1       1                               0D     46
     510      25                                                00010000D     47
     510            -263       1       1                               0D     48
     508      26                                                00010000D     49
     508                       1       1                               0D     50
     508      27                                                00010000D     51
     508                       1       1                               0D     52
     508      28                                                00010000D     53
     508                       5       1                               0D     54
     508      33                                                00010000D     55
     508                       1       1                               0D     56
     508      34                                                00010000D     57
     508                       1       1                               0D     58
     508      35                                                00010000D     59
     508                       1       1                               0D     60
     508      36                                                00010000D     61
     508                       1       1                               0D     62
     508      37                                                00010000D     63
     508                       1       1                               0D     64
     508      38                                                00010000D     65
     508                       1       1                               0D     66
     508      39                                                00010000D     67
     508                       1       1                               0D     68
     508      40                                                00010000D     69
     508                       1       1                               0D     70
     508      41                                                00010000D     71
     508                       1       1                               0D     72
     508      42                                                00010000D     73
     508                       1       1                               0D     74
     508      43                                                00010000D     75
     508                       1       1                               0D     76
     508      44                                                00010000D     77
     508                       1       1                               0D     78
     508      45                                                00010000D     79
     508                       1       1                               0D     80
     508      46                                                00010000D     81
     508                       1       1                               0D     82
     508      47                                                00010000D     83
     508                       1       1                               0D     84
     508      48                                                00010000D     85
     508                       1       1                               0D     86
     508      49                                                00010000D     87
     508                       1       1                               0D     88
     508      50                                                00010000D     89
     508                       1       1                               0D     90
     508      51                                                00010000D     91
     508                       5       1                               0D     92
     126      56                                                00010000D     93
     126       0               2       0                               0D     94
     126      58                                                00010000D     95
     126       0               2       0                               0D     96
     126      60                                                00010000D     97
     126       0               2       0                               0D     98
     126      62                                                00010000D     99
     126       0               2       0                               0D    100
     126      64                                                00010000D    101
     126       0               2       0                               0D    102
     126      66                                                00010000D    103
     126       0               2       0                               0D    104
     126      68                                                00010000D    105
     126       0               2       0                               0D    106
     126      70                                                00010000D    107
     126       0               2       0                               0D    108
     126      72                                                00010000D    109
     126       0               2       0                               0D    110
     126      74                                                00010000D    111
     126       0               2       0                               0D    112
     126      76                                                00010000D    113
     126       0               2       0                               0D    114
     126      78                                                00010000D    115
     126       0               2       0                               0D    116
     126      80                                                00010000D    117
     126       0               2       0                               0D    118
     126      82                                                00010000D    119
     126       0               2       0                               0D    120
     126      84                                                00010000D    121
     126       0               2       0                               0D    122
     126      86                                                00010000D    123
     126       0               2       0                               0D    124
     126      88                                                00010000D    125
     126       0               2       0                               0D    126
     126      90                                                00010000D    127
     126       0               2       0                               0D    128
     126      92                                                00010000D    129
     126       0               2       0                               0D    130
     126      94                                                00010000D    131
     126       0               2       0                               0D    132
     126      96                                                00010000D    133
     126       0               2       0                               0D    134
     126      98                                                00010000D    135
     126       0               2       0                               0D    136
     126     100                                                00010000D    137
     126       0               2       0                               0D    138
     126     102                                                00010000D    139
     126       0               2       0                               0D    140
     126     104                                                00010000D    141
     126       0               2       0                               0D    142
     126     106                                                00010000D    143
     126       0               2       0                               0D    144
     126     108                                                00010000D    145
     126       0               2       0                               0D    146
     126     110                                                00010000D    147
     126       0               2       0                               0D    148
     126     112                                                00010000D    149
     126       0               2       0                               0D    150
     126     114                                                00010000D    151
     126       0               2       0                               0D    152
     126     116                                                00010000D    153
     126       0               2       0                               0D    154
     126     118                                                00010000D    155
     126       0               2       0                               0D    156
     126     120                                                00010000D    157
     126       0               2       0                               0D    158
     126     122                                                00010000D    159
     126       0               2       0                               0D    160
     126     124                                                00010000D    161
     126       0               2       0                               0D    162
     126     126                                                00010000D    163
     126       0               2       0                               0D    164
     126     128                                                00010000D    165
     126       0               2       0                               0D    166
     126     130                                                00010000D    167
     126       0               2       0                               0D    168
     126     132                                                00010000D    169
     126       0               2       0                               0D    170
     126     134                                                00010000D    171
     126       0               2       0                               0D    172
     126     136                                                00010000D    173
     126       0               2       0                               0D    174
     126     138                                                00010000D    175
     126       0               2       0                               0D    176
     126     140                                                00010000D    177
     126       0               2       0                               0D    178
     126     142                                                00010000D    179
     126       0               2       0                               0D    180
     126     144                                                00010000D    181
     126       0               2       0                               0D    182
     126     146                                                00010000D    183
     126       0               2       0                               0D    184
     126     148                                                00010000D    185
     126       0               2       0                               0D    186
     126     150                                                00010000D    187
     126       0               2       0                               0D    188
     126     152                                                00010000D    189
     126       0               2       0                               0D    190
     126     154                                                00010000D    191
     126       0               2       0                               0D    192
     126     156                                                00010000D    193
     126       0               2       0                               0D    194
     126     158                                                00010000D    195
     126       0               2       0                               0D    196
     126     160                                                00010000D    197
     126       0               2       0                               0D    198
     126     162                                                00010000D    199
     126       0               2       0                               0D    200
     126     164                                                00010000D    201
     126       0               2       0                               0D    202
     126     166                                                00010000D    203
     126       0               2       0                               0D    204
     126     168                                                00010000D    205
     126       0               2       0                               0D    206
     126     170                                                00010000D    207
     126       0               2       0                               0D    208
     126     172                                                00010000D    209
     126       0               2       0                               0D    210
     126     174                                                00010000D    211
     126       0               2       0                               0D    212
     128     176                                                00010000D    213
     128       0    -263       3       0                               0D    214
     128     179                                                00010000D    215
     128       0    -263       3       0                               0D    216
     128     182                                                00010000D    217
     128       0    -263       4       0                               0D    218
     128     186                                                00010000D    219
     128       0    -263       3       0                               0D    220
     128     189                                                00010000D    221
     128       0    -263       3       0                               0D    222
     128     192                                                00010000D    223
     128       0    -263       3       0                               0D    224
     128     195                                                00010000D    225
     128       0    -263       4       0                               0D    226
     128     199                                                00010000D    227
     128       0    -263       4       0                               0D    228
     128     203                                                00010000D    229
     128       0    -263       3       0                               0D    230
     128     206                                                00010000D    231
     128       0    -263       3       0                               0D    232
     128     209                                                00010000D    233
     128       0    -263       3       0                               0D    234
     128     212                                                00010000D    235
     128       0    -263       3       0                               0D    236
     128     215                                                00010000D    237
     128       0    -263       3       0                               0D    238
     128     218                                                00010000D    239
     128       0    -263       3       0                               0D    240
     128     221                                                00010000D    241
     128       0    -263       4       0                               0D    242
     128     225                                                00010000D    243
     128       0    -263       3       0                               0D    244
     128     228                                                00010000D    245
     128       0    -263       3       0                               0D    246
     128     231                                                00010000D    247
     128       0    -263       3       0                               0D    248
     128     234                                                00010000D    249
     128       0    -263       3       0                               0D    250
     128     237                                                00010000D    251
     128       0    -263       4       0                               0D    252
     128     241                                                00010000D    253
     128       0    -263       3       0                               0D    254
     128     244                                                00010000D    255
     128       0    -263       4       0                               0D    256
     502     248                                                00010000D    257
     502                       9       1                               0D    258
     504     257                                                00010001D    259
     504                      17       1                               0D    260
     406     274                                                00000000D    261
     406                       1      15                               0D    262
     314     275                                                00000200D    263
     314                       2       0                               0D    264
186,3,1,0,0,1,261;                                                     1P      1
514,22,5,1,7,1,9,1,11,1,13,1,15,1,17,1,19,1,21,1,23,1,25,1,27,1,       3P      2
29,1,31,1,33,1,35,1,37,1,39,1,41,1,43,1,45,1,47,1;                     3P      3
510,213,1,1,49;                                                        5P      4
510,215,1,1,51;                                                        7P      5
510,217,1,1,53;                                                        9P      6
510,219,1,1,55;                                                       11P      7
510,221,1,1,57;                                                       13P      8
510,223,1,1,59;                                                       15P      9
510,225,1,1,61;                                                       17P     10
510,227,1,1,63;                                                       19P     11
510,229,1,1,65;                                                       21P     12
510,231,1,1,67;                                                       23P     13
510,233,1,1,69;                                                       25P     14
510,235,1,1,71;                                                       27P     15
510,237,1,1,73;                                                       29P     16
510,239,1,1,75;                                                       31P     17
510,241,1,1,77;                                                       33P     18
510,243,1,1,79;                                                       35P     19
510,245,1,1,81;                                                       37P     20
510,247,1,1,83;                                                       39P     21
510,249,1,1,85;                                                       41P     22
510,251,1,1,87;                                                       43P     23
510,253,1,1,89;                                                       45P     24
510,255,1,1,91;                                                       47P     25
508,4,0,259,1,0,0,0,259,2,0,0,0,259,3,0,0,0,259,4,0,0;                49P     26
508,4,0,259,5,0,0,0,259,6,0,0,0,259,7,0,0,0,259,8,0,0;                51P     27
508,20,0,259,1,1,0,0,259,9,0,0,0,259,10,0,0,0,259,11,1,0,0,259,       53P     28
12,1,0,0,259,13,1,0,0,259,14,0,0,0,259,15,0,0,0,259,16,0,0,0,         53P     29
259,17,0,0,0,259,18,0,0,0,259,19,0,0,0,259,20,0,0,0,259,21,0,0,       53P     30
0,259,5,1,0,0,259,22,1,0,0,259,23,1,0,0,259,24,1,0,0,259,25,1,0,      53P     31
0,259,26,1,0;                                                         53P     32
508,4,0,259,8,1,0,0,259,27,0,0,0,259,28,0,0,0,259,22,0,0;             55P     33
508,4,0,259,6,1,0,0,259,21,1,0,0,259,29,1,0,0,259,30,0,0;             57P     34
508,4,0,259,18,1,0,0,259,31,1,0,0,259,32,0,0,0,259,33,0,0;            59P     35
508,4,0,259,19,1,0,0,259,33,1,0,0,259,34,0,0,0,259,35,0,0;            61P     36
508,4,0,259,17,1,0,0,259,36,0,0,0,259,37,0,0,0,259,31,0,0;            63P     37
508,4,0,259,35,1,0,0,259,38,0,0,0,259,29,0,0,0,259,20,1,0;            65P     38
508,4,0,259,36,1,0,0,259,16,1,0,0,259,39,1,0,0,259,40,0,0;            67P     39
508,4,0,259,13,0,0,0,259,41,1,0,0,259,42,0,0,0,259,43,0,0;            69P     40
508,4,0,259,11,0,0,0,259,44,0,0,0,259,45,0,0,0,259,46,0,0;            71P     41
508,4,0,259,12,0,0,0,259,46,1,0,0,259,47,0,0,0,259,41,0,0;            73P     42
508,4,0,259,43,1,0,0,259,48,0,0,0,259,49,0,0,0,259,14,1,0;            75P     43
508,4,0,259,44,1,0,0,259,10,1,0,0,259,50,1,0,0,259,51,0,0;            77P     44
508,4,0,259,23,0,0,0,259,28,1,0,0,259,52,0,0,0,259,53,0,0;            79P     45
508,4,0,259,2,1,0,0,259,26,0,0,0,259,54,1,0,0,259,55,0,0;             81P     46
508,4,0,259,25,0,0,0,259,56,1,0,0,259,57,0,0,0,259,54,0,0;            83P     47
508,4,0,259,24,0,0,0,259,53,1,0,0,259,58,0,0,0,259,56,0,0;            85P     48
508,4,0,259,15,1,0,0,259,49,1,0,0,259,59,0,0,0,259,39,0,0;            87P     49
508,4,0,259,4,1,0,0,259,60,0,0,0,259,50,0,0,0,259,9,1,0;              89P     50
508,20,0,259,3,1,0,0,259,55,1,0,0,259,57,1,0,0,259,58,1,0,0,259,      91P     51
52,1,0,0,259,27,1,0,0,259,7,1,0,0,259,30,1,0,0,259,38,1,0,0,259,      91P     52
34,1,0,0,259,32,1,0,0,259,37,1,0,0,259,40,1,0,0,259,59,1,0,0,         91P     53
259,48,1,0,0,259,42,1,0,0,259,47,1,0,0,259,45,1,0,0,259,51,1,0,       91P     54
0,259,60,1,0;                                                         91P     55
126,1,1,0,0,1,0,0.125,0.125,0.875,0.875,1.,1.,-5.4,0.,0.75,-5.4,      93P     56
0.,0.,0.125,0.875,0.,0.,0.;                                           93P     57
126,1,1,0,0,1,0,-0.5,-0.5,0.,0.,1.,1.,-5.4,0.5,0.75,-5.4,0.,          95P     58
0.75,-0.5,0.,0.,0.,0.;                                                95P     59
126,1,1,0,0,1,0,-0.875,-0.875,-0.125,-0.125,1.,1.,-5.4,0.5,0.,        97P     60
-5.4,0.5,0.75,-0.875,-0.125,0.,0.,0.;                                 97P     61
126,1,1,0,0,1,0,0.,0.,0.5,0.5,1.,1.,-5.4,0.,0.,-5.4,0.5,0.,0.,        99P     62
0.5,0.,0.,0.;                                                         99P     63
126,1,1,0,0,1,0,-0.5,-0.5,0.25,0.25,1.,1.,-6.,0.,0.,-6.,0.,0.75,     101P     64
-0.5,0.25,0.,0.,0.;                                                  101P     65
126,1,1,0,0,1,0,-0.5,-0.5,0.,0.,1.,1.,-6.,0.5,0.,-6.,0.,0.,-0.5,     103P     66
0.,0.,0.,0.;                                                         103P     67
126,1,1,0,0,1,0,-0.25,-0.25,0.5,0.5,1.,1.,-6.,0.5,0.75,-6.,0.5,      105P     68
0.,-0.25,0.5,0.,0.,0.;                                               105P     69
126,1,1,0,0,1,0,0.,0.,0.5,0.5,1.,1.,-6.,0.,0.75,-6.,0.5,0.75,0.,     107P     70
0.5,0.,0.,0.;                                                        107P     71
126,1,1,0,0,1,0,0.,0.,5.4,5.4,1.,1.,0.,0.,0.,-5.4,0.,0.,0.,5.4,      109P     72
0.,0.,0.;                                                            109P     73
126,1,1,0,0,1,0,1.475,1.475,2.,2.,1.,1.,0.,0.,0.525,0.,0.,0.,        111P     74
1.475,2.,0.,0.,0.;                                                   111P     75
126,1,1,0,0,1,0,0.,0.,0.5,0.5,1.,1.,0.,0.,0.525,0.5,0.,0.525,0.,     113P     76
0.5,0.,0.,0.;                                                        113P     77
126,1,1,0,0,1,0,0.,0.,0.95,0.95,1.,1.,0.5,0.,0.525,0.5,0.,1.475,     115P     78
0.,0.95,0.,0.,0.;                                                    115P     79
126,1,1,0,0,1,0,0.,0.,0.5,0.5,1.,1.,0.5,0.,1.475,0.,0.,1.475,0.,     117P     80
0.5,0.,0.,0.;                                                        117P     81
126,1,1,0,0,1,0,0.,0.,0.525,0.525,1.,1.,0.,0.,2.,0.,0.,1.475,0.,     119P     82
0.525,0.,0.,0.;                                                      119P     83
126,1,1,0,0,1,0,0.,0.,26.5,26.5,1.,1.,-26.5,0.,2.,0.,0.,2.,0.,       121P     84
26.5,0.,0.,0.;                                                       121P     85
126,1,1,0,0,1,0,1.475,1.475,2.,2.,1.,1.,-26.5,0.,1.475,-26.5,0.,     123P     86
2.,1.475,2.,0.,0.,0.;                                                123P     87
126,1,1,0,0,1,0,0.,0.,0.5,0.5,1.,1.,-27.,0.,1.475,-26.5,0.,          125P     88
1.475,0.,0.5,0.,0.,0.;                                               125P     89
126,1,1,0,0,1,0,0.,0.,0.95,0.95,1.,1.,-27.,0.,0.525,-27.,0.,         127P     90
1.475,0.,0.95,0.,0.,0.;                                              127P     91
126,1,1,0,0,1,0,0.,0.,0.5,0.5,1.,1.,-26.5,0.,0.525,-27.,0.,          129P     92
0.525,0.,0.5,0.,0.,0.;                                               129P     93
126,1,1,0,0,1,0,0.,0.,0.525,0.525,1.,1.,-26.5,0.,0.,-26.5,0.,        131P     94
0.525,0.,0.525,0.,0.,0.;                                             131P     95
126,1,1,0,0,1,0,6.,6.,26.5,26.5,1.,1.,-6.,0.,0.,-26.5,0.,0.,6.,      133P     96
26.5,0.,0.,0.;                                                       133P     97
126,1,1,0,0,1,0,-2.375,-2.375,15.125,15.125,1.,1.,-6.,0.,0.75,       135P     98
-23.5,0.,0.75,-2.375,15.125,0.,0.,0.;                                135P     99
126,1,1,0,0,1,0,-0.125,-0.125,0.375,0.375,1.,1.,-23.5,0.,0.75,       137P    100
-23.5,0.,1.25,-0.125,0.375,0.,0.,0.;                                 137P    101
126,1,1,0,0,1,0,-5.125,-5.125,14.875,14.875,1.,1.,-23.5,0.,1.25,     139P    102
-3.5,0.,1.25,-5.125,14.875,0.,0.,0.;                                 139P    103
126,1,1,0,0,1,0,-0.125,-0.125,0.375,0.375,1.,1.,-3.5,0.,1.25,        141P    104
-3.5,0.,0.75,-0.125,0.375,0.,0.,0.;                                  141P    105
126,1,1,0,0,1,0,-4.875,-4.875,-2.975,-2.975,1.,1.,-3.5,0.,0.75,      143P    106
-5.4,0.,0.75,-4.875,-2.975,0.,0.,0.;                                 143P    107
126,1,1,0,0,1,0,-15.125,-15.125,2.375,2.375,1.,1.,-23.5,0.5,         145P    108
0.75,-6.,0.5,0.75,-15.125,2.375,0.,0.,0.;                            145P    109
126,1,1,0,0,1,0,0.,0.,0.5,0.5,1.,1.,-23.5,0.,0.75,-23.5,0.5,         147P    110
0.75,0.,0.5,0.,0.,0.;                                                147P    111
126,1,1,0,0,1,0,0.,0.,0.5,0.5,1.,1.,-26.5,0.,0.,-26.5,0.5,0.,0.,     149P    112
0.5,0.,0.,0.;                                                        149P    113
126,1,1,0,0,1,0,6.,6.,26.5,26.5,1.,1.,-6.,0.5,0.,-26.5,0.5,0.,       151P    114
6.,26.5,0.,0.,0.;                                                    151P    115
126,1,1,0,0,1,0,0.,0.,0.5,0.5,1.,1.,-27.,0.,1.475,-27.,0.5,          153P    116
1.475,0.,0.5,0.,0.,0.;                                               153P    117
126,1,1,0,0,1,0,0.,0.,0.95,0.95,1.,1.,-27.,0.5,0.525,-27.,0.5,       155P    118
1.475,0.,0.95,0.,0.,0.;                                              155P    119
126,1,1,0,0,1,0,0.,0.,0.5,0.5,1.,1.,-27.,0.,0.525,-27.,0.5,          157P    120
0.525,0.,0.5,0.,0.,0.;                                               157P    121
126,1,1,0,0,1,0,0.,0.,0.5,0.5,1.,1.,-26.5,0.5,0.525,-27.,0.5,        159P    122
0.525,0.,0.5,0.,0.,0.;                                               159P    123
126,1,1,0,0,1,0,0.,0.,0.5,0.5,1.,1.,-26.5,0.,0.525,-26.5,0.5,        161P    124
0.525,0.,0.5,0.,0.,0.;                                               161P    125
126,1,1,0,0,1,0,-0.5,-0.5,0.,0.,1.,1.,-26.5,0.5,1.475,-26.5,0.,      163P    126
1.475,-0.5,0.,0.,0.,0.;                                              163P    127
126,1,1,0,0,1,0,0.,0.,0.5,0.5,1.,1.,-27.,0.5,1.475,-26.5,0.5,        165P    128
1.475,0.,0.5,0.,0.,0.;                                               165P    129
126,1,1,0,0,1,0,0.,0.,0.525,0.525,1.,1.,-26.5,0.5,0.,-26.5,0.5,      167P    130
0.525,0.,0.525,0.,0.,0.;                                             167P    131
126,1,1,0,0,1,0,0.,0.,0.5,0.5,1.,1.,-26.5,0.,2.,-26.5,0.5,2.,0.,     169P    132
0.5,0.,0.,0.;                                                        169P    133
126,1,1,0,0,1,0,1.475,1.475,2.,2.,1.,1.,-26.5,0.5,1.475,-26.5,       171P    134
0.5,2.,1.475,2.,0.,0.,0.;                                            171P    135
126,1,1,0,0,1,0,0.,0.,0.5,0.5,1.,1.,0.5,0.,1.475,0.5,0.5,1.475,      173P    136
0.,0.5,0.,0.,0.;                                                     173P    137
126,1,1,0,0,1,0,-0.5,-0.5,0.,0.,1.,1.,0.,0.5,1.475,0.5,0.5,          175P    138
1.475,-0.5,0.,0.,0.,0.;                                              175P    139
126,1,1,0,0,1,0,0.,0.,0.5,0.5,1.,1.,0.,0.,1.475,0.,0.5,1.475,0.,     177P    140
0.5,0.,0.,0.;                                                        177P    141
126,1,1,0,0,1,0,-0.5,-0.5,0.,0.,1.,1.,0.,0.5,0.525,0.,0.,0.525,      179P    142
-0.5,0.,0.,0.,0.;                                                    179P    143
126,1,1,0,0,1,0,-0.5,-0.5,0.,0.,1.,1.,0.5,0.5,0.525,0.,0.5,          181P    144
0.525,-0.5,0.,0.,0.,0.;                                              181P    145
126,1,1,0,0,1,0,0.,0.,0.5,0.5,1.,1.,0.5,0.,0.525,0.5,0.5,0.525,      183P    146
0.,0.5,0.,0.,0.;                                                     183P    147
126,1,1,0,0,1,0,-0.95,-0.95,0.,0.,1.,1.,0.5,0.5,1.475,0.5,0.5,       185P    148
0.525,-0.95,0.,0.,0.,0.;                                             185P    149
126,1,1,0,0,1,0,0.,0.,0.525,0.525,1.,1.,0.,0.5,2.,0.,0.5,1.475,      187P    150
0.,0.525,0.,0.,0.;                                                   187P    151
126,1,1,0,0,1,0,0.,0.,0.5,0.5,1.,1.,0.,0.,2.,0.,0.5,2.,0.,0.5,       189P    152
0.,0.,0.;                                                            189P    153
126,1,1,0,0,1,0,0.,0.,0.5,0.5,1.,1.,0.,0.,0.,0.,0.5,0.,0.,0.5,       191P    154
0.,0.,0.;                                                            191P    155
126,1,1,0,0,1,0,1.475,1.475,2.,2.,1.,1.,0.,0.5,0.525,0.,0.5,0.,      193P    156
1.475,2.,0.,0.,0.;                                                   193P    157
126,1,1,0,0,1,0,-0.375,-0.375,0.125,0.125,1.,1.,-23.5,0.5,1.25,      195P    158
-23.5,0.5,0.75,-0.375,0.125,0.,0.,0.;                                195P    159
126,1,1,0,0,1,0,0.,0.,0.5,0.5,1.,1.,-23.5,0.,1.25,-23.5,0.5,         197P    160
1.25,0.,0.5,0.,0.,0.;                                                197P    161
126,1,1,0,0,1,0,0.,0.,0.5,0.5,1.,1.,-3.5,0.,0.75,-3.5,0.5,0.75,      199P    162
0.,0.5,0.,0.,0.;                                                     199P    163
126,1,1,0,0,1,0,2.975,2.975,4.875,4.875,1.,1.,-5.4,0.5,0.75,         201P    164
-3.5,0.5,0.75,2.975,4.875,0.,0.,0.;                                  201P    165
126,1,1,0,0,1,0,0.,0.,0.5,0.5,1.,1.,-3.5,0.,1.25,-3.5,0.5,1.25,      203P    166
0.,0.5,0.,0.,0.;                                                     203P    167
126,1,1,0,0,1,0,-0.375,-0.375,0.125,0.125,1.,1.,-3.5,0.5,0.75,       205P    168
-3.5,0.5,1.25,-0.375,0.125,0.,0.,0.;                                 205P    169
126,1,1,0,0,1,0,-14.875,-14.875,5.125,5.125,1.,1.,-3.5,0.5,1.25,     207P    170
-23.5,0.5,1.25,-14.875,5.125,0.,0.,0.;                               207P    171
126,1,1,0,0,1,0,0.,0.,26.5,26.5,1.,1.,-26.5,0.5,2.,0.,0.5,2.,0.,     209P    172
26.5,0.,0.,0.;                                                       209P    173
126,1,1,0,0,1,0,0.,0.,5.4,5.4,1.,1.,0.,0.5,0.,-5.4,0.5,0.,0.,        211P    174
5.4,0.,0.,0.;                                                        211P    175
128,1,1,1,1,0,0,1,0,0,-0.001,-0.001,0.751,0.751,-0.001,-0.001,       213P    176
0.501,0.501,1.,1.,1.,1.,-5.4,-0.001,-0.001,-5.4,-0.001,0.751,        213P    177
-5.4,0.501,-0.001,-5.4,0.501,0.751,-0.001,0.751,-0.001,0.501;        213P    178
128,1,1,1,1,0,0,1,0,0,-0.001,-0.001,0.751,0.751,-0.001,-0.001,       215P    179
0.501,0.501,1.,1.,1.,1.,-6.,-0.001,0.751,-6.,-0.001,-0.001,-6.,      215P    180
0.501,0.751,-6.,0.501,-0.001,-0.001,0.751,-0.001,0.501;              215P    181
128,1,1,1,1,0,0,1,0,0,-13.751,-13.751,13.751,13.751,-1.001,          217P    182
-1.001,1.001,1.001,1.,1.,1.,1.,0.500999999999999,0.,2.001,           217P    183
-27.001,0.,2.001,0.500999999999998,0.,-0.00099999999999989,          217P    184
-27.001,0.,-0.00099999999999989,-13.751,13.751,-1.001,1.001;         217P    185
128,1,1,1,1,0,0,1,0,0,2.499,2.499,20.001,20.001,-0.001,-0.001,       219P    186
0.501,0.501,1.,1.,1.,1.,-23.501,-0.001,0.75,-5.999,-0.001,0.75,      219P    187
-23.501,0.501,0.75,-5.999,0.501,0.75,2.499,20.001,-0.001,0.501;      219P    188
128,1,1,1,1,0,0,1,0,0,5.999,5.999,26.501,26.501,-0.001,-0.001,       221P    189
0.501,0.501,1.,1.,1.,1.,-5.999,-0.001,0.,-26.501,-0.001,0.,          221P    190
-5.999,0.501,0.,-26.501,0.501,0.,5.999,26.501,-0.001,0.501;          221P    191
128,1,1,1,1,0,0,1,0,0,-0.001,-0.001,0.951,0.951,-0.001,-0.001,       223P    192
0.501,0.501,1.,1.,1.,1.,-27.,-0.001,0.524,-27.,-0.001,1.476,         223P    193
-27.,0.501,0.524,-27.,0.501,1.476,-0.001,0.951,-0.001,0.501;         223P    194
128,1,1,1,1,0,0,1,0,0,-0.001,-0.001,0.501,0.501,-0.001,-0.001,       225P    195
0.501,0.501,1.,1.,1.,1.,-26.499,-0.001,0.525,-27.001,-0.001,         225P    196
0.525,-26.499,0.501,0.525,-27.001,0.501,0.525,-0.001,0.501,          225P    197
-0.001,0.501;                                                        225P    198
128,1,1,1,1,0,0,1,0,0,-0.001,-0.001,0.501,0.501,-0.001,-0.001,       227P    199
0.501,0.501,1.,1.,1.,1.,-27.001,-0.001,1.475,-26.499,-0.001,         227P    200
1.475,-27.001,0.501,1.475,-26.499,0.501,1.475,-0.001,0.501,          227P    201
-0.001,0.501;                                                        227P    202
128,1,1,1,1,0,0,1,0,0,-0.001,-0.001,0.526,0.526,-0.001,-0.001,       229P    203
0.501,0.501,1.,1.,1.,1.,-26.5,-0.001,-0.001,-26.5,-0.001,0.526,      229P    204
-26.5,0.501,-0.001,-26.5,0.501,0.526,-0.001,0.526,-0.001,0.501;      229P    205
128,1,1,1,1,0,0,1,0,0,1.474,1.474,2.001,2.001,-0.001,-0.001,         231P    206
0.501,0.501,1.,1.,1.,1.,-26.5,-0.001,1.474,-26.5,-0.001,2.001,       231P    207
-26.5,0.501,1.474,-26.5,0.501,2.001,1.474,2.001,-0.001,0.501;        231P    208
128,1,1,1,1,0,0,1,0,0,-0.001,-0.001,0.501,0.501,-0.001,-0.001,       233P    209
0.501,0.501,1.,1.,1.,1.,-0.001,-0.001,1.475,0.501,-0.001,1.475,      233P    210
-0.001,0.501,1.475,0.501,0.501,1.475,-0.001,0.501,-0.001,0.501;      233P    211
128,1,1,1,1,0,0,1,0,0,-0.001,-0.001,0.501,0.501,-0.001,-0.001,       235P    212
0.501,0.501,1.,1.,1.,1.,0.501,-0.001,0.525,-0.001,-0.001,0.525,      235P    213
0.501,0.501,0.525,-0.001,0.501,0.525,-0.001,0.501,-0.001,0.501;      235P    214
128,1,1,1,1,0,0,1,0,0,-0.001,-0.001,0.951,0.951,-0.001,-0.001,       237P    215
0.501,0.501,1.,1.,1.,1.,0.5,-0.001,1.476,0.5,-0.001,0.524,0.5,       237P    216
0.501,1.476,0.5,0.501,0.524,-0.001,0.951,-0.001,0.501;               237P    217
128,1,1,1,1,0,0,1,0,0,-0.001,-0.001,0.526,0.526,-0.001,-0.001,       239P    218
0.501,0.501,1.,1.,1.,1.,0.,-0.001,2.001,0.,-0.001,1.474,0.,          239P    219
0.501,2.001,0.,0.501,1.474,-0.001,0.526,-0.001,0.501;                239P    220
128,1,1,1,1,0,0,1,0,0,1.474,1.474,2.001,2.001,-0.001,-0.001,         241P    221
0.501,0.501,1.,1.,1.,1.,0.,-0.001,0.526,0.,-0.001,                   241P    222
-0.00099999999999989,0.,0.501,0.526,0.,0.501,                        241P    223
-0.00099999999999989,1.474,2.001,-0.001,0.501;                       241P    224
128,1,1,1,1,0,0,1,0,0,-0.001,-0.001,0.501,0.501,-0.001,-0.001,       243P    225
0.501,0.501,1.,1.,1.,1.,-23.5,-0.001,1.251,-23.5,-0.001,0.749,       243P    226
-23.5,0.501,1.251,-23.5,0.501,0.749,-0.001,0.501,-0.001,0.501;       243P    227
128,1,1,1,1,0,0,1,0,0,-0.001,-0.001,1.901,1.901,-0.001,-0.001,       245P    228
0.501,0.501,1.,1.,1.,1.,-5.401,-0.001,0.75,-3.499,-0.001,0.75,       245P    229
-5.401,0.501,0.75,-3.499,0.501,0.75,-0.001,1.901,-0.001,0.501;       245P    230
128,1,1,1,1,0,0,1,0,0,-0.001,-0.001,0.501,0.501,-0.001,-0.001,       247P    231
0.501,0.501,1.,1.,1.,1.,-3.5,-0.001,0.749,-3.5,-0.001,1.251,         247P    232
-3.5,0.501,0.749,-3.5,0.501,1.251,-0.001,0.501,-0.001,0.501;         247P    233
128,1,1,1,1,0,0,1,0,0,-0.001,-0.001,20.001,20.001,-0.001,-0.001,     249P    234
0.501,0.501,1.,1.,1.,1.,-3.499,-0.001,1.25,-23.501,-0.001,1.25,      249P    235
-3.499,0.501,1.25,-23.501,0.501,1.25,-0.001,20.001,-0.001,0.501;     249P    236
128,1,1,1,1,0,0,1,0,0,-0.001,-0.001,26.501,26.501,-0.001,-0.001,     251P    237
0.501,0.501,1.,1.,1.,1.,-26.501,-0.001,2.,0.00100000000000122,       251P    238
-0.001,2.,-26.501,0.501,2.,0.00100000000000122,0.501,2.,-0.001,      251P    239
26.501,-0.001,0.501;                                                 251P    240
128,1,1,1,1,0,0,1,0,0,-0.001,-0.001,5.401,5.401,-0.001,-0.001,       253P    241
0.501,0.501,1.,1.,1.,1.,0.001,-0.001,0.,-5.401,-0.001,0.,0.001,      253P    242
0.501,0.,-5.401,0.501,0.,-0.001,5.401,-0.001,0.501;                  253P    243
128,1,1,1,1,0,0,1,0,0,-1.001,-1.001,1.001,1.001,-13.751,-13.751,     255P    244
13.751,13.751,1.,1.,1.,1.,-27.001,0.5,-0.00099999999999989,          255P    245
-27.001,0.5,2.001,0.500999999999999,0.5,-0.00099999999999989,        255P    246
0.500999999999998,0.5,2.001,-1.001,1.001,-13.751,13.751;             255P    247
502,40,-5.4,0.,0.75,-5.4,0.,0.,-5.4,0.5,0.75,-5.4,0.5,0.,-6.,0.,     257P    248
0.,-6.,0.,0.75,-6.,0.5,0.,-6.,0.5,0.75,0.,0.,0.,0.,0.,0.525,0.5,     257P    249
0.,0.525,0.5,0.,1.475,0.,0.,1.475,0.,0.,2.,-26.5,0.,2.,-26.5,0.,     257P    250
1.475,-27.,0.,1.475,-27.,0.,0.525,-26.5,0.,0.525,-26.5,0.,0.,        257P    251
-23.5,0.,0.75,-23.5,0.,1.25,-3.5,0.,1.25,-3.5,0.,0.75,-23.5,0.5,     257P    252
0.75,-26.5,0.5,0.,-27.,0.5,1.475,-27.,0.5,0.525,-26.5,0.5,0.525,     257P    253
-26.5,0.5,1.475,-26.5,0.5,2.,0.5,0.5,1.475,0.,0.5,1.475,0.,0.5,      257P    254
0.525,0.5,0.5,0.525,0.,0.5,2.,0.,0.5,0.,-23.5,0.5,1.25,-3.5,0.5,     257P    255
0.75,-3.5,0.5,1.25;                                                  257P    256
504,60,93,257,1,257,2,95,257,3,257,1,97,257,4,257,3,99,257,2,        259P    257
257,4,101,257,5,257,6,103,257,7,257,5,105,257,8,257,7,107,257,6,     259P    258
257,8,109,257,9,257,2,111,257,10,257,9,113,257,10,257,11,115,        259P    259
257,11,257,12,117,257,12,257,13,119,257,14,257,13,121,257,15,        259P    260
257,14,123,257,16,257,15,125,257,17,257,16,127,257,18,257,17,        259P    261
129,257,19,257,18,131,257,20,257,19,133,257,5,257,20,135,257,6,      259P    262
257,21,137,257,21,257,22,139,257,22,257,23,141,257,23,257,24,        259P    263
143,257,24,257,1,145,257,25,257,8,147,257,21,257,25,149,257,20,      259P    264
257,26,151,257,7,257,26,153,257,17,257,27,155,257,28,257,27,157,     259P    265
257,18,257,28,159,257,29,257,28,161,257,19,257,29,163,257,30,        259P    266
257,16,165,257,27,257,30,167,257,26,257,29,169,257,15,257,31,        259P    267
171,257,30,257,31,173,257,12,257,32,175,257,33,257,32,177,257,       259P    268
13,257,33,179,257,34,257,10,181,257,35,257,34,183,257,11,257,35,     259P    269
185,257,32,257,35,187,257,36,257,33,189,257,14,257,36,191,257,9,     259P    270
257,37,193,257,34,257,37,195,257,38,257,25,197,257,22,257,38,        259P    271
199,257,24,257,39,201,257,3,257,39,203,257,23,257,40,205,257,39,     259P    272
257,40,207,257,40,257,38,209,257,31,257,36,211,257,37,257,4;         259P    273
406,1,5HBody1;                                                       261P    274
314,62.7450980392157,62.7450980392157,62.7450980392157,13HSteel      263P    275
- Satin;                                                             263P    276
S      1G      3D    264P    276                                        T      1
